<svg width="120" height="119" viewBox="0 0 120 119" fill="none" xmlns="http://www.w3.org/2000/svg" >

    <g id="css">
        <path d="M22.1325 101.154L13.71 7.4375H106.29L97.8562 101.139L59.9437 111.562L22.1325 101.154Z" fill="#1572B6"/>
        <path d="M60 103.597L90.6375 95.174L97.845 15.1019H60V103.597Z" fill="#33A9DC"/>
        <path d="M60 49.054H75.3375L76.395 37.2842H60V25.7896H89.0625L88.785 28.8724L85.9387 60.5487H60V49.054Z"
              fill="white"/>
        <path d="M60.0711 78.9045L60.0186 78.9193L47.1112 75.4609L46.2862 66.2942H34.6499L36.2737 84.3413L60.0149 90.8788L60.0711 90.864V78.9045Z"
              fill="#EBEBEB"/>
        <path d="M74.3513 60.0615L72.9563 75.4534L60.03 78.9119V90.8714L83.79 84.3412L83.9663 82.4001L85.98 60.0615H74.3513Z"
              fill="white"/>
        <path d="M60.0411 25.7896V37.2842H32.0436L31.8111 34.6997L31.2824 28.8724L31.0049 25.7896H60.0411ZM59.9999 49.054V60.5487H47.2536L47.0211 57.9642L46.4961 52.1369L46.2186 49.054H59.9999Z"
              fill="#EBEBEB"/>
    </g>


    <g id="html">
        <path d="M22.1323 102.004L13.7061 7.5H106.294L97.856 101.989L59.9436 112.5L22.1323 102.004Z" fill="#E44F26"/>
        <path d="M60 104.468L90.6375 95.9738L97.845 15.2288H60V104.468Z" fill="#F1662A"/>
        <path d="M60 50.2762H44.6625L43.605 38.4075H60V26.8162H30.9375L31.215 29.9287L34.0613 61.8675H60V50.2762ZM60 80.3775L59.9475 80.3925L47.04 76.9087L46.215 67.665H34.5787L36.2025 85.86L59.9475 92.4525L60 92.4375V80.3775Z"
              fill="#EBEBEB"/>
        <path d="M59.959 50.2762V61.8675H74.2315L72.889 76.9012L59.959 80.3887V92.4487L83.7227 85.86L83.8952 83.9025L86.6177 53.3887L86.9027 50.2762H59.959ZM59.959 26.8162V38.4075H87.9565L88.189 35.805L88.7177 29.9287L88.9952 26.8162H59.959Z"
              fill="white"/>
    </g>
    <g id="javaScript">
        <path d="M0.254883 0H115.745V120H0.254883V0Z" fill="#F7DF1E"/>
        <path d="M30.6203 100.28L39.4584 94.7229C41.1635 97.8641 42.7145 100.522 46.435 100.522C50.0012 100.522 52.2496 99.0723 52.2496 93.4342V55.0913H63.1028V93.5936C63.1028 105.274 56.5136 110.59 46.9002 110.59C38.2181 110.59 33.1783 105.918 30.6201 100.28"
              fill="#1F2626"/>
        <path d="M69 99.0724L77.837 93.756C80.1633 97.7035 83.1868 100.603 88.5357 100.603C93.0326 100.603 95.9003 98.2669 95.9003 95.0448C95.9003 91.1783 92.9545 89.8088 87.9929 87.5541L85.2803 86.345C77.4499 82.8819 72.2555 78.5322 72.2555 69.3492C72.2555 60.8913 78.4574 54.4469 88.1483 54.4469C95.048 54.4469 100.01 56.9442 103.575 63.469L95.125 69.1073C93.2644 65.6438 91.2493 64.2747 88.1485 64.2747C84.9699 64.2747 82.9542 66.369 82.9542 69.1073C82.9542 72.4905 84.9699 73.8602 89.6209 75.9547L92.334 77.1629C101.56 81.2713 106.754 85.4595 106.754 94.8836C106.754 105.034 99.079 110.591 88.7685 110.591C78.6904 110.591 72.1782 105.597 69.0002 99.0724"
              fill="#1F2626"/>
    </g>
    <g id="jest">
        <path d="M107.525 59.083C107.525 52.9145 102.524 47.9135 96.3553 47.9135C95.9581 47.9135 95.567 47.9348 95.1809 47.9756L110.522 2.72803H45.327L60.647 47.936C60.421 47.9218 60.1945 47.9144 59.968 47.9139C53.7995 47.9139 48.7986 52.914 48.7986 59.0834C48.7986 64.0695 52.0665 68.2911 56.5764 69.7273C54.1945 73.8533 51.197 77.5697 47.7939 80.7807C43.1662 85.146 37.8702 88.4565 32.1422 90.496C25.3223 86.9926 22.102 79.2012 25.0077 72.3698C25.3359 71.5981 25.6709 70.8162 25.9911 70.0377C30.9317 68.8846 34.6137 64.4555 34.6137 59.1633C34.6137 52.9944 29.6128 47.9939 23.4439 47.9939C17.2749 47.9939 12.2744 52.9944 12.2744 59.1633C12.2744 62.9461 14.1562 66.2876 17.0334 68.3081C14.2689 74.6024 10.2051 81.1901 8.93887 88.8251C7.4214 97.9749 8.93377 107.688 16.8476 113.173C35.2783 125.947 55.2847 105.254 76.3786 100.052C84.0234 98.1671 92.4151 98.4707 99.1504 94.5701C104.208 91.6406 107.543 86.7855 108.489 81.3351C109.424 75.9507 108.061 70.5896 104.927 66.2425C106.608 64.2361 107.528 61.7009 107.525 59.083Z"
              fill="#99425B"/>
        <path d="M105.802 80.8682C104.98 85.6005 102.058 89.7336 97.7837 92.2094C93.7993 94.5169 89.025 95.2057 83.9696 95.9344C81.2617 96.3247 78.4614 96.7291 75.7258 97.4034C68.4927 99.187 61.4866 102.667 54.7118 106.032C41.1528 112.767 29.4434 118.583 18.4023 110.931C10.3146 105.325 10.6879 94.9544 11.6301 89.2715C12.5034 84.006 14.8644 79.1569 17.1472 74.4676C17.5361 73.6706 17.9219 72.8721 18.3045 72.0721C19.4553 72.5321 20.6627 72.835 21.8943 72.9726C19.5703 80.6424 23.2251 88.9819 30.8958 92.9225L31.946 93.462L33.0574 93.0662C39.1217 90.9063 44.7099 87.4411 49.6662 82.7645C52.8699 79.7419 55.6246 76.3979 57.8887 72.8247C58.577 72.9285 59.2722 72.9807 59.9683 72.9807C67.0088 72.9807 72.8389 67.7174 73.7411 60.9197C76.623 60.8142 79.6838 60.8134 82.5823 60.9188C83.4837 67.7174 89.3146 72.9811 96.3551 72.9811C99.299 72.9811 102.03 72.0585 104.279 70.4913C105.841 73.6882 106.424 77.2852 105.802 80.8682ZM23.4445 50.7217C28.0994 50.7217 31.886 54.5088 31.886 59.1637C31.886 60.8355 31.3954 62.3946 30.5531 63.7076C29.15 65.896 26.7648 67.396 24.0245 67.5831C23.8327 67.5958 23.6393 67.6052 23.4445 67.6052C22.4071 67.6052 21.4135 67.416 20.4946 67.0724C18.6442 66.3766 17.0946 65.0568 16.1132 63.3406C15.3844 62.0692 15.0015 60.6291 15.0026 59.1637C15.0026 54.5088 18.7897 50.7217 23.4445 50.7217ZM51.5272 59.0833C51.5272 54.8541 54.6535 51.3425 58.7157 50.7353C59.1247 50.6737 59.5431 50.6418 59.9687 50.6418C62.675 50.6418 65.0845 51.9237 66.6296 53.9102C67.0166 54.4055 67.3471 54.9424 67.6151 55.511C68.1398 56.6287 68.4113 57.8485 68.4102 59.0833C68.4102 59.7581 68.3286 60.4141 68.1785 61.0434C67.3558 64.4873 64.419 67.12 60.8203 67.4823C60.5406 67.5104 60.2565 67.5248 59.9687 67.5248C58.345 67.5262 56.7558 67.0563 55.3938 66.1723C53.0697 64.6668 51.5272 62.0523 51.5272 59.0833ZM86.7597 49.0448C84.9227 50.7983 83.6006 53.021 82.9369 55.4723C79.7551 55.355 76.57 55.355 73.3882 55.4723C72.6739 52.8226 71.1934 50.4849 69.2015 48.7094L77.9368 31.0466L86.7597 49.0453V49.0448ZM49.1322 5.45675H106.717L93.1161 45.5703C92.5309 45.7104 91.9556 45.8887 91.3937 46.1039L77.958 18.6956L64.4841 45.9402C63.8967 45.7386 63.2964 45.5768 62.6873 45.4559L49.1322 5.45675ZM104.797 59.0837C104.797 59.9298 104.67 60.747 104.438 61.5187C103.886 63.3355 102.74 64.9144 101.184 66.0023C99.7694 66.9949 98.0831 67.5268 96.3551 67.5252C92.4575 67.5252 89.1696 64.8691 88.2027 61.2721C88.0107 60.5585 87.9135 59.8227 87.9136 59.0837C87.9136 57.9298 88.1466 56.8294 88.5675 55.8269C88.7847 55.3139 89.0522 54.8237 89.366 54.3634C90.8852 52.121 93.4486 50.6422 96.3551 50.6422C96.6217 50.6422 96.8844 50.6558 97.1451 50.6805C101.431 51.0797 104.797 54.695 104.797 59.0837H104.797ZM110.253 59.0837C110.253 52.2987 105.364 46.6375 98.9253 45.4283L114.328 0H41.5223L56.9486 45.5201C50.7334 46.9032 46.0713 52.4573 46.0713 59.0833C46.0713 64.0588 48.7006 68.4287 52.6412 70.8846C50.7457 73.7086 48.4982 76.366 45.9225 78.7963C41.8374 82.6497 37.2867 85.5724 32.3805 87.4955C27.4387 84.3913 25.3498 78.537 27.519 73.4374L27.6891 73.0377L28.008 72.2877C33.4358 70.3943 37.3419 65.2284 37.3419 59.1637C37.3419 51.5002 31.1075 45.2658 23.4445 45.2658C15.7811 45.2658 9.54671 51.5002 9.54671 59.1637C9.54671 63.0315 11.1369 66.5342 13.6956 69.0563C13.2184 70.0674 12.7339 71.0751 12.2423 72.0793C9.90258 76.8843 7.25116 82.3304 6.24817 88.3786C4.25663 100.39 7.46928 109.992 15.2947 115.415C20.0431 118.706 24.8655 120 29.7181 120C38.8552 120 48.0985 115.409 57.1391 110.919C63.6499 107.685 70.3826 104.341 77.0328 102.701C79.5074 102.091 82.0534 101.723 84.749 101.335C90.0948 100.563 95.6221 99.7662 100.518 96.9306C106.194 93.6431 110.079 88.1286 111.178 81.8019C112.121 76.3702 110.986 70.9301 108.218 66.316C109.552 64.1395 110.256 61.636 110.253 59.0833L110.253 59.0837Z"
              fill="white"/>
    </g>
    <g id="react">
        <path d="M0 59.7974C0 69.273 8.84919 78.1189 22.8007 83.1049C20.0147 97.7701 22.3014 109.59 29.9391 114.196C37.79 118.93 49.4858 115.653 60.5867 105.507C71.4076 115.243 82.3439 119.075 89.9746 114.456C97.8178 109.709 100.203 97.087 97.3404 81.964C111.872 76.9405 120 69.3977 120 59.7974C120 50.5414 111.134 42.5338 97.3711 37.5796C100.453 21.8316 97.8416 10.2984 89.8877 5.50237C82.2193 0.878721 71.156 4.9087 60.176 14.9001C48.7532 4.29502 37.799 1.05714 29.8528 5.86712C22.1918 10.5039 20.0057 22.5388 22.8007 37.4756C9.32028 42.39 0 50.5784 0 59.7974Z"
              fill="white"/>
        <path d="M94.4565 42.4992C93.351 42.1013 92.2054 41.7248 91.0259 41.3688C91.2198 40.5415 91.3977 39.7249 91.5559 38.9222C94.1528 25.7415 92.4549 15.1231 86.6569 11.627C81.0973 8.27476 72.005 11.77 62.8223 20.1259C61.9393 20.9294 61.0538 21.7801 60.1687 22.6717C59.5789 22.0818 58.9901 21.5118 58.4028 20.9665C48.779 12.0318 39.1327 8.26663 33.3404 11.7728C27.7861 15.1348 26.1413 25.1171 28.4789 37.6085C28.7046 38.8151 28.9685 40.0472 29.2669 41.3C27.9016 41.7052 26.5836 42.1372 25.3226 42.5967C14.0397 46.7099 6.83398 53.1561 6.83398 59.8425C6.83398 66.7483 14.5693 73.675 26.3213 77.875C27.2487 78.2064 28.211 78.5198 29.2028 78.8173C28.8808 80.1722 28.6009 81.4999 28.3658 82.7949C26.1369 95.0696 27.8776 104.816 33.417 108.157C39.1388 111.607 48.7415 108.061 58.0921 99.5143C58.8311 98.8387 59.5729 98.1223 60.3159 97.3714C61.279 98.3411 62.2405 99.2588 63.197 100.12C72.2541 108.269 81.1995 111.56 86.7339 108.21C92.4499 104.75 94.3076 94.2798 91.8958 81.5412C91.7116 80.5683 91.4973 79.5744 91.2566 78.5628C91.9309 78.3544 92.593 78.1392 93.2385 77.9154C105.456 73.6829 113.405 66.8406 113.405 59.8425C113.405 53.1319 105.967 46.6422 94.4565 42.4992Z"
              fill="#53C1DE"/>
        <path d="M91.8055 73.3972C91.2227 73.599 90.6248 73.7939 90.0155 73.9829C88.6668 69.5184 86.8465 64.771 84.6189 59.8661C86.7446 55.078 88.4946 50.3913 89.8055 45.9557C90.8957 46.2855 91.9538 46.6334 92.9734 47.0006C102.835 50.5504 108.851 55.7988 108.851 59.8429C108.851 64.1505 102.354 69.7425 91.8055 73.3972ZM87.4285 82.466C88.4949 88.0988 88.6473 93.1916 87.9408 97.1728C87.3061 100.75 86.0297 103.135 84.4514 104.09C81.0929 106.123 73.9106 103.481 66.1648 96.5115C65.2769 95.7125 64.3825 94.8595 63.4852 93.9566C66.4881 90.5226 69.4893 86.5305 72.4183 82.0969C77.5702 81.6189 82.4376 80.8374 86.8516 79.7705C87.069 80.6874 87.2621 81.5867 87.4285 82.466ZM43.1651 103.739C39.8838 104.951 37.2704 104.986 35.6906 104.033C32.329 102.006 30.9316 94.1803 32.8378 83.6831C33.0561 82.4809 33.316 81.246 33.6155 79.9837C37.9812 80.9931 42.8129 81.7194 47.9771 82.1572C50.9259 86.4956 54.0138 90.4834 57.1255 93.975C56.4457 94.6613 55.7685 95.3147 55.095 95.9303C50.9603 99.7094 46.8168 102.391 43.1651 103.739ZM27.7925 73.3709C22.596 71.5137 18.3046 69.1001 15.363 66.4662C12.7198 64.0994 11.3853 61.7496 11.3853 59.8429C11.3853 55.7853 17.1707 50.6099 26.8199 47.0922C27.9907 46.6654 29.2163 46.2631 30.4882 45.8853C31.8218 50.421 33.5712 55.1633 35.6823 59.9587C33.5438 64.8253 31.7696 69.6431 30.423 74.2321C29.5163 73.9595 28.6378 73.6727 27.7925 73.3709ZM32.9456 36.6947C30.9428 25.9923 32.2729 17.9189 35.6201 15.893C39.1854 13.7348 47.0693 16.8119 55.3786 24.5266C55.9098 25.0197 56.443 25.5358 56.9778 26.0697C53.8814 29.5461 50.8218 33.5039 47.8992 37.8167C42.8871 38.3025 38.0893 39.0828 33.6782 40.1277C33.4008 38.9612 33.1552 37.8152 32.9456 36.6947ZM78.9154 48.5635C77.8608 46.659 76.7783 44.7995 75.6746 42.9908C79.0749 43.4402 82.3327 44.0369 85.3921 44.767C84.4736 47.8449 83.3288 51.0631 81.9812 54.3622C81.0145 52.4432 79.9921 50.5083 78.9154 48.5635ZM60.169 29.4717C62.2689 31.8505 64.3719 34.5063 66.4403 37.3879C64.3559 37.285 62.2458 37.2314 60.1181 37.2314C58.0106 37.2314 55.916 37.2838 53.8446 37.3849C55.9151 34.5301 58.0363 31.8779 60.169 29.4717ZM41.3025 48.5965C40.2492 50.5063 39.2457 52.4307 38.2942 54.3586C36.9684 51.071 35.8342 47.8382 34.9077 44.7166C37.9484 44.0051 41.1908 43.4234 44.5695 42.9825C43.4503 44.8078 42.3588 46.681 41.3025 48.5961V48.5965ZM44.6668 77.0428C41.176 76.6356 37.8848 76.0838 34.845 75.392C35.7862 72.2147 36.9454 68.9128 38.2993 65.5544C39.2533 67.481 40.2607 69.4061 41.3206 71.3202H41.3208C42.4003 73.2701 43.5187 75.1802 44.6668 77.0428ZM60.2949 90.5496C58.1372 88.1153 55.9849 85.4226 53.8829 82.5261C55.9234 82.6098 58.0038 82.6527 60.1181 82.6527C62.2903 82.6527 64.4377 82.6015 66.5513 82.5031C64.476 85.4517 62.3806 88.1486 60.2949 90.5496ZM82.0246 65.3833C83.4491 68.778 84.6498 72.0626 85.6032 75.1857C82.5133 75.9228 79.1771 76.5164 75.6621 76.9575C76.7684 75.1244 77.8605 73.233 78.9336 71.2874C80.0192 69.319 81.05 67.3477 82.0246 65.3833ZM74.99 68.9093C73.3241 71.9295 71.6138 74.8126 69.8776 77.5341C66.7152 77.7706 63.448 77.8923 60.1181 77.8923C56.8017 77.8923 53.5758 77.7846 50.4693 77.5738C48.6631 74.8166 46.9156 71.9249 45.2603 68.9352H45.2607C43.6098 65.9537 42.0903 62.947 40.7135 59.9571C42.09 56.9603 43.6054 53.9502 45.2469 50.974L45.2465 50.9746C46.8923 47.9905 48.6244 45.1129 50.4139 42.3729C53.5834 42.1224 56.8334 41.9917 60.118 41.9917H60.1181C63.4175 41.9917 66.6717 42.1234 69.8402 42.3761C71.6024 45.096 73.3228 47.9643 74.975 50.9488C76.646 53.9669 78.1811 56.9569 79.5692 59.8895C78.1852 62.8724 76.6536 65.8926 74.99 68.9093ZM84.3816 15.7513C87.9503 17.9032 89.3381 26.5816 87.0959 37.9617C86.9529 38.6879 86.7919 39.4275 86.617 40.1771C82.1956 39.1104 77.3944 38.3166 72.3677 37.8235C69.4394 33.4632 66.4048 29.4993 63.3589 26.0675C64.1778 25.2438 64.9956 24.4583 65.8099 23.7171C73.6777 16.5578 81.0312 13.7312 84.3816 15.7513Z"
              fill="white"/>
        <path d="M60.1185 49.8923C65.3741 49.8923 69.6349 54.3472 69.6349 59.8428C69.6349 65.3381 65.3741 69.7932 60.1185 69.7932C54.8628 69.7932 50.6021 65.3381 50.6021 59.8428C50.6021 54.3472 54.8628 49.8923 60.1185 49.8923Z"
              fill="#53C1DE"/>
    </g>
    <g id="redux">
        <g clip-path="url(#clip0_1_2440)">
            <path d="M83.1473 82.6013C87.5756 82.1428 90.9352 78.3253 90.7823 73.7438C90.63 69.1627 86.812 65.4975 82.2309 65.4975H81.9258C77.1914 65.6503 73.5267 69.6207 73.6795 74.3546C73.8323 76.6453 74.7483 78.6305 76.1227 80.0049C70.9308 90.2368 62.9902 97.7194 51.0792 103.98C42.9858 108.256 34.5872 109.784 26.1886 108.715C19.3167 107.798 13.972 104.745 10.612 99.7046C5.72578 92.2219 5.26781 84.128 9.39093 76.0346C12.2925 70.2314 16.8731 65.9555 19.7747 63.8175C19.1639 61.8324 18.2475 58.4728 17.7895 56.0297C-4.35282 72.0643 -2.06204 93.7491 4.65703 103.98C9.69609 111.616 19.9275 116.35 31.2276 116.35C34.2816 116.35 37.3355 116.045 40.3898 115.282C59.9362 111.464 74.7487 99.8574 83.1473 82.6013ZM110.024 63.6652C98.4178 50.0738 81.315 42.5911 61.7686 42.5911H59.3255C57.9511 39.8424 55.0495 38.0096 51.8428 38.0096H51.5372C46.8037 38.1624 43.1391 42.1327 43.2914 46.8671C43.4442 51.4482 47.2617 55.1133 51.8428 55.1133H52.148C55.5075 54.9605 58.4091 52.8225 59.6306 49.921H62.3794C73.9852 49.921 84.9797 53.2805 94.9059 59.8472C102.541 64.8868 108.038 71.4535 111.092 79.3941C113.688 85.808 113.535 92.0691 110.787 97.4143C106.511 105.508 99.3342 109.936 89.8664 109.936C83.7581 109.936 77.9555 108.104 74.9011 106.729C73.2216 108.256 70.1672 110.7 68.0292 112.227C74.5959 115.281 81.315 116.961 87.7284 116.961C102.388 116.961 113.23 108.867 117.353 100.774C121.782 91.9163 121.476 76.6453 110.024 63.6652ZM32.4492 85.1968C32.602 89.7783 36.4195 93.443 41.0006 93.443H41.3062C46.0401 93.2907 49.7048 89.3199 49.552 84.586C49.3997 80.0044 45.5817 76.3397 41.0006 76.3397H40.6955C40.3898 76.3397 39.9314 76.3397 39.6267 76.4921C33.3656 66.1078 30.7697 54.8077 31.6861 42.5907C32.2964 33.428 35.3508 25.4869 40.6955 18.9202C45.1237 13.2699 53.6751 10.5211 59.4783 10.3688C75.6647 10.0632 82.5361 30.2208 82.9945 38.3147C84.9797 38.7727 88.3392 39.8419 90.63 40.6055C88.7972 15.8668 73.5267 3.03894 58.8675 3.03894C45.1237 3.03894 32.4492 12.9652 27.4097 27.6253C20.3855 47.1722 24.9666 65.9555 33.518 80.7685C32.7548 81.8372 32.2964 83.5172 32.4492 85.1972V85.1968Z"
                  fill="#764ABC"/>
        </g>
        <defs>
            <clipPath id="clip0_1_2440">
                <rect width="120" height="120" fill="white"/>
            </clipPath>
        </defs>
    </g>

    <g id="logo">
        <path d="M0 20C0 8.95431 8.95431 0 20 0H40V20C40 31.0457 31.0457 40 20 40C8.95431 40 0 31.0457 0 20Z"
              fill="#8643DC"/>
        <path d="M16 10C16 4.47715 20.4772 0 26 0H40V13C40 18.5228 35.5228 23 30 23H16V10Z" fill="#FF59C1"/>
        <path d="M25.32 25.5H15.57L13.71 30H8.73L18.09 9H22.89L32.28 30H27.18L25.32 25.5ZM23.79 21.81L20.46 13.77L17.13 21.81H23.79Z"
              fill="white"/>
    </g>


</svg>
