<svg xmlns="http://www.w3.org/2000/svg" role="img" width="60px" height="60px" fill="#000000">
    <g id="logo">
        <path d="M0 20C0 8.95431 8.95431 0 20 0H40V20C40 31.0457 31.0457 40 20 40C8.95431 40 0 31.0457 0 20Z"
              fill="#8643DC"/>
        <path d="M16 10C16 4.47715 20.4772 0 26 0H40V13C40 18.5228 35.5228 23 30 23H16V10Z" fill="#FF59C1"/>
        <path d="M25.32 25.5H15.57L13.71 30H8.73L18.09 9H22.89L32.28 30H27.18L25.32 25.5ZM23.79 21.81L20.46 13.77L17.13 21.81H23.79Z"
              fill="white"/>
    </g>
    <svg id="JAVA SCRIPT" viewBox="0 0 512 512">
        <rect width="512" height="512" rx="15%" fill="#f7df1e"/>
        <path d="M324 370c10 17 24 29 47 29c20 0 33-10 33 -24c0-16 -13 -22 -35 -32l-12-5c-35-15 -58 -33 -58 -72c0-36 27 -64 70 -64c31 0 53 11 68 39l-37 24c-8-15 -17 -21 -31 -21c-14 0-23 9 -23 21c0 14 9 20 30 29l12 5c41 18 64 35 64 76c0 43-34 67 -80 67c-45 0-74 -21 -88 -49zm-170 4c8 13 14 25 31 25c16 0 26-6 26 -30V203h48v164c0 50-29 72 -72 72c-39 0-61 -20 -72 -44z"/>
    </svg>

    <svg id="REACT" viewBox="0 0 32 32">
        <path d="M18.6789 15.9759C18.6789 14.5415 17.4796 13.3785 16 13.3785C14.5206 13.3785 13.3211 14.5415 13.3211 15.9759C13.3211 17.4105 14.5206 18.5734 16 18.5734C17.4796 18.5734 18.6789 17.4105 18.6789 15.9759Z"
              fill="#53C1DE"/>
        <path fill-rule="evenodd" clip-rule="evenodd"
              d="M24.7004 11.1537C25.2661 8.92478 25.9772 4.79148 23.4704 3.39016C20.9753 1.99495 17.7284 4.66843 16.0139 6.27318C14.3044 4.68442 10.9663 2.02237 8.46163 3.42814C5.96751 4.82803 6.73664 8.8928 7.3149 11.1357C4.98831 11.7764 1 13.1564 1 15.9759C1 18.7874 4.98416 20.2888 7.29698 20.9289C6.71658 23.1842 5.98596 27.1909 8.48327 28.5877C10.9973 29.9932 14.325 27.3945 16.0554 25.7722C17.7809 27.3864 20.9966 30.0021 23.4922 28.6014C25.9956 27.1963 25.3436 23.1184 24.7653 20.8625C27.0073 20.221 31 18.7523 31 15.9759C31 13.1835 26.9903 11.7923 24.7004 11.1537ZM24.4162 19.667C24.0365 18.5016 23.524 17.2623 22.8971 15.9821C23.4955 14.7321 23.9881 13.5088 24.3572 12.3509C26.0359 12.8228 29.7185 13.9013 29.7185 15.9759C29.7185 18.07 26.1846 19.1587 24.4162 19.667ZM22.85 27.526C20.988 28.571 18.2221 26.0696 16.9478 24.8809C17.7932 23.9844 18.638 22.9422 19.4625 21.7849C20.9129 21.6602 22.283 21.4562 23.5256 21.1777C23.9326 22.7734 24.7202 26.4763 22.85 27.526ZM9.12362 27.5111C7.26143 26.47 8.11258 22.8946 8.53957 21.2333C9.76834 21.4969 11.1286 21.6865 12.5824 21.8008C13.4123 22.9332 14.2816 23.9741 15.1576 24.8857C14.0753 25.9008 10.9945 28.557 9.12362 27.5111ZM2.28149 15.9759C2.28149 13.874 5.94207 12.8033 7.65904 12.3326C8.03451 13.5165 8.52695 14.7544 9.12123 16.0062C8.51925 17.2766 8.01977 18.5341 7.64085 19.732C6.00369 19.2776 2.28149 18.0791 2.28149 15.9759ZM9.1037 4.50354C10.9735 3.45416 13.8747 6.00983 15.1159 7.16013C14.2444 8.06754 13.3831 9.1006 12.5603 10.2265C11.1494 10.3533 9.79875 10.5569 8.55709 10.8297C8.09125 9.02071 7.23592 5.55179 9.1037 4.50354ZM20.3793 11.5771C21.3365 11.6942 22.2536 11.85 23.1147 12.0406C22.8562 12.844 22.534 13.6841 22.1545 14.5453C21.6044 13.5333 21.0139 12.5416 20.3793 11.5771ZM16.0143 8.0481C16.6054 8.66897 17.1974 9.3623 17.7798 10.1145C16.5985 10.0603 15.4153 10.0601 14.234 10.1137C14.8169 9.36848 15.414 8.67618 16.0143 8.0481ZM9.8565 14.5444C9.48329 13.6862 9.16398 12.8424 8.90322 12.0275C9.75918 11.8418 10.672 11.69 11.623 11.5748C10.9866 12.5372 10.3971 13.5285 9.8565 14.5444ZM11.6503 20.4657C10.6679 20.3594 9.74126 20.2153 8.88556 20.0347C9.15044 19.2055 9.47678 18.3435 9.85796 17.4668C10.406 18.4933 11.0045 19.4942 11.6503 20.4657ZM16.0498 23.9915C15.4424 23.356 14.8365 22.6531 14.2448 21.8971C15.4328 21.9423 16.6231 21.9424 17.811 21.891C17.2268 22.6608 16.6369 23.3647 16.0498 23.9915ZM22.1667 17.4222C22.5677 18.3084 22.9057 19.1657 23.1742 19.9809C22.3043 20.1734 21.3652 20.3284 20.3757 20.4435C21.015 19.4607 21.6149 18.4536 22.1667 17.4222ZM18.7473 20.5941C16.9301 20.72 15.1016 20.7186 13.2838 20.6044C12.2509 19.1415 11.3314 17.603 10.5377 16.0058C11.3276 14.4119 12.2404 12.8764 13.2684 11.4158C15.0875 11.2825 16.9178 11.2821 18.7369 11.4166C19.7561 12.8771 20.6675 14.4086 21.4757 15.9881C20.6771 17.5812 19.7595 19.1198 18.7473 20.5941ZM22.8303 4.4666C24.7006 5.51254 23.8681 9.22726 23.4595 10.8426C22.2149 10.5641 20.8633 10.3569 19.4483 10.2281C18.6239 9.09004 17.7698 8.05518 16.9124 7.15949C18.1695 5.98441 20.9781 3.43089 22.8303 4.4666Z"
              fill="#53C1DE"/>
    </svg>

    <svg id="REDUX-TOOLKIT" viewBox="0 0 32 32" fill="none">
        <g id="SVGRepo_bgCarrier" stroke-width="0"/>
        <g id="SVGRepo_tracerCarrier" stroke-linecap="round" stroke-linejoin="round"/>
        <g id="SVGRepo_iconCarrier">
            <path d="M21.7868 21.556C22.8939 21.4433 23.7338 20.505 23.6956 19.3789C23.6575 18.253 22.703 17.3522 21.5577 17.3522H21.4814C20.2978 17.3897 19.3817 18.3656 19.4199 19.5291C19.4581 20.0921 19.6871 20.58 20.0307 20.9178C18.7327 23.4326 16.7475 25.2717 13.7698 26.8106C11.7464 27.8615 9.6468 28.2369 7.54715 27.9742C5.82918 27.749 4.49301 26.9984 3.65301 25.7596C2.43144 23.9205 2.31695 21.9312 3.34773 19.942C4.07312 18.5157 5.21828 17.4647 5.94367 16.9392C5.79098 16.4513 5.56187 15.6256 5.44738 15.0251C-0.0882044 18.9661 0.484491 24.2959 2.16426 26.8106C3.42402 28.6873 5.98187 29.8509 8.80691 29.8509C9.57039 29.8509 10.3339 29.7757 11.0975 29.5882C15.9841 28.6498 19.6872 25.7972 21.7868 21.556ZM28.5059 16.9018C25.6045 13.5613 21.3287 11.7222 16.4421 11.7222H15.8314C15.4878 11.0466 14.7624 10.5961 13.9607 10.5961H13.8843C12.7009 10.6337 11.7848 11.6095 11.8229 12.7731C11.8611 13.8991 12.8154 14.7999 13.9607 14.7999H14.037C14.8769 14.7624 15.6023 14.2369 15.9077 13.5237H16.5948C19.4963 13.5237 22.2449 14.3494 24.7265 15.9634C26.6352 17.202 28.0096 18.816 28.7731 20.7677C29.4221 22.3441 29.3839 23.883 28.6967 25.1967C27.6278 27.1859 25.8336 28.2744 23.4666 28.2744C21.9395 28.2744 20.4889 27.824 19.7253 27.4862C19.3054 27.8615 18.5418 28.462 18.0073 28.8375C19.649 29.5881 21.3287 30.001 22.9321 30.001C26.597 30.001 29.3076 28.0116 30.3384 26.0224C31.4454 23.8454 31.369 20.0921 28.5059 16.9018ZM9.1123 22.1939C9.15051 23.3199 10.1049 24.2206 11.2502 24.2206H11.3266C12.51 24.1832 13.4262 23.2073 13.388 22.0438C13.3499 20.9177 12.3954 20.017 11.2502 20.017H11.1739C11.0975 20.017 10.9829 20.017 10.9067 20.0544C9.3414 17.5022 8.69242 14.7248 8.92152 11.7221C9.0741 9.47006 9.83769 7.51828 11.1739 5.9043C12.2809 4.51555 14.4188 3.83996 15.8696 3.80252C19.9162 3.7274 21.634 8.68179 21.7486 10.6711C22.2449 10.7837 23.0848 11.0465 23.6575 11.2342C23.1993 5.15382 19.3817 2.00098 15.7169 2.00098C12.2809 2.00098 9.1123 4.44067 7.85242 8.04387C6.09637 12.8481 7.24164 17.4647 9.37949 21.1055C9.18871 21.3682 9.0741 21.7811 9.1123 22.194V22.1939Z"
                  fill="#764ABC"/>
        </g>

    </svg>

    <svg id="TYPE SCRIPT" viewBox="0 0 512 512" fill="#000000">

        <rect width="512" height="512" rx="15%" fill="#3178c6"/>
        <path fill="#ffffff"
              d="m233 284h64v-41H118v41h64v183h51zm84 173c8.1 4.2 18 7.3 29 9.4s23 3.1 35 3.1c12 0 23-1.1 34-3.4c11-2.3 20-6.1 28-11c8.1-5.3 15-12 19-21s7.1-19 7.1-32c0-9.1-1.4-17-4.1-24s-6.6-13-12-18c-5.1-5.3-11-10-18-14s-15-8.2-24-12c-6.6-2.7-12-5.3-18-7.9c-5.2-2.6-9.7-5.2-13-7.8c-3.7-2.7-6.5-5.5-8.5-8.4c-2-3-3-6.3-3-10c0-3.4.89-6.5 2.7-9.3s4.3-5.1 7.5-7.1c3.2-2 7.2-3.5 12-4.6c4.7-1.1 9.9-1.6 16-1.6c4.2 0 8.6.31 13 .94c4.6.63 9.3 1.6 14 2.9c4.7 1.3 9.3 2.9 14 4.9c4.4 2 8.5 4.3 12 6.9v-47c-7.6-2.9-16-5.1-25-6.5s-19-2.1-31-2.1c-12 0-23 1.3-34 3.8s-20 6.5-28 12c-8.1 5.4-14 12-19 21c-4.7 8.4-7 18-7 30c0 15 4.3 28 13 38c8.6 11 22 19 39 27c6.9 2.8 13 5.6 19 8.3s11 5.5 15 8.4c4.3 2.9 7.7 6.1 10 9.5c2.5 3.4 3.8 7.4 3.8 12c0 3.2-.78 6.2-2.3 9s-3.9 5.2-7.1 7.2s-7.1 3.6-12 4.8c-4.7 1.1-10 1.7-17 1.7c-11 0-22-1.9-32-5.7c-11-3.8-21-9.5-28.1-15.44z"/>

    </svg>

    <svg id="GIT" viewBox="0 0 32 32" fill="none">
        <path d="M2.58536 17.4132C1.80488 16.6327 1.80488 15.3673 2.58536 14.5868L14.5868 2.58536C15.3673 1.80488 16.6327 1.80488 17.4132 2.58536L29.4146 14.5868C30.1951 15.3673 30.1951 16.6327 29.4146 17.4132L17.4132 29.4146C16.6327 30.1951 15.3673 30.1951 14.5868 29.4146L2.58536 17.4132Z"
              fill="#EE513B">
        </path>
        <path d="M12.1489 5.06152L10.9336 6.27686L14.0725 9.41577C13.9455 9.68819 13.8746 9.99201 13.8746 10.3124C13.8746 11.222 14.4461 11.9981 15.2496 12.3012V19.9798C14.4461 20.2829 13.8746 21.059 13.8746 21.9686C13.8746 23.1422 14.826 24.0936 15.9996 24.0936C17.1732 24.0936 18.1246 23.1422 18.1246 21.9686C18.1246 21.144 17.6549 20.429 16.9684 20.0768V12.3117L19.9689 15.3122C19.8481 15.5791 19.7809 15.8754 19.7809 16.1874C19.7809 17.361 20.7323 18.3124 21.9059 18.3124C23.0795 18.3124 24.0309 17.361 24.0309 16.1874C24.0309 15.0138 23.0795 14.0624 21.9059 14.0624C21.6778 14.0624 21.4582 14.0983 21.2522 14.1648L18.0297 10.9423C18.0914 10.7433 18.1246 10.5317 18.1246 10.3124C18.1246 9.13878 17.1732 8.18738 15.9996 8.18738C15.7803 8.18738 15.5688 8.22061 15.3697 8.2823L12.1489 5.06152Z"
              fill="white">
        </path>
    </svg>

    <svg id="HTML" viewBox="0 0 32 32" fill="none">
        <path d="M6 28L4 3H28L26 28L16 31L6 28Z" fill="#E44D26">
        </path>
        <path d="M26 5H16V29.5L24 27L26 5Z" fill="#F16529">
        </path>
        <path d="M9.5 17.5L8.5 8H24L23.5 11H11.5L12 14.5H23L22 24L16 26L10 24L9.5 19H12.5L13 21.5L16 22.5L19 21.5L19.5 17.5H9.5Z"
              fill="white">
        </path>
    </svg>

    <svg id="CSS" viewBox="0 0 32 32" fill="none">
        <path d="M6 28L4 3H28L26 28L16 31L6 28Z" fill="#1172B8">
        </path>
        <path d="M26 5H16V29.5L24 27L26 5Z" fill="#33AADD">
        </path>
        <path d="M19.5 17.5H9.5L9 14L17 11.5H9L8.5 8.5H24L23.5 12L17 14.5H23L22 24L16 26L10 24L9.5 19H12.5L13 21.5L16 22.5L19 21.5L19.5 17.5Z"
              fill="white">
        </path>
    </svg>

    <svg id="JEST" viewBox="-13.5 0 283 283" fill="#000000">
        <path d="M239.552674,138.960457 C239.552674,124.451866 227.791431,112.690623 213.282197,112.690623 C212.349305,112.690623 211.428604,112.740668 210.521375,112.835625 L246.60326,6.41597594 L93.2669594,6.41597594 L129.298799,112.743234 C128.770117,112.711154 128.238869,112.690623 127.702488,112.690623 C113.193897,112.690623 101.432012,124.451866 101.432012,138.960457 C101.432012,150.688337 109.117786,160.616517 119.725426,163.994562 C114.122939,173.699465 107.072994,182.440036 99.0689845,189.991715 C88.1854556,200.259304 75.7293554,208.044527 62.2569544,212.842442 C46.2174957,204.602322 38.6427188,186.27747 45.4777263,170.20978 C46.2489343,168.395324 47.0374657,166.556487 47.7900672,164.725349 C59.410799,162.013289 68.0692451,151.596207 68.0692451,139.149089 C68.0692451,124.640497 56.308002,112.879254 41.7987689,112.879254 C27.2901774,112.879254 15.5282927,124.640497 15.5282927,139.149089 C15.5282927,148.046212 19.9553604,155.904577 26.7217163,160.656938 C20.2197013,175.461309 10.6617263,190.954763 7.68404211,208.911976 C4.1154406,230.432658 7.67249323,253.276327 26.2854256,266.177059 C69.6334757,296.220808 116.687431,247.551936 166.299461,235.317831 C184.279771,230.883705 204.016152,231.598452 219.857355,222.423515 C231.753335,215.533329 239.595661,204.115344 241.821385,191.296096 C244.020162,178.632116 240.814709,166.023314 233.442679,155.799354 C237.255731,151.239475 239.552674,145.36944 239.552674,138.960457"
              fill="#99425B">
        </path>
        <path d="M235.500174,190.198183 C233.567663,201.327447 226.694159,211.049031 216.641508,216.871587 C207.270881,222.298915 196.041528,223.918965 184.152606,225.633331 C177.783403,226.551467 171.197337,227.501682 164.763332,229.088369 C147.751202,233.283176 131.273528,241.468118 115.338651,249.382945 C83.4490065,265.222865 55.908796,278.900579 29.9405153,260.903587 C10.9188812,247.719908 11.7972371,223.328048 14.0133373,209.961512 C16.0671118,197.577913 21.6195529,186.173402 26.9891368,175.143587 C27.9168962,173.23674 28.8260491,171.365181 29.7108211,169.509662 C32.3721945,170.5728 35.2029514,171.298454 38.1536882,171.628239 C32.6878637,189.666935 41.2834326,209.28077 59.3253373,218.549381 L61.7942296,219.817833 L64.4094075,218.886865 C78.6722647,213.807286 91.8148812,205.656349 103.472184,194.657973 C111.007182,187.549001 117.486099,179.684219 122.810771,171.280489 C124.407082,171.521091 126.039964,171.647487 127.70236,171.647487 C144.260876,171.647487 157.973237,159.268379 160.095022,143.280249 C166.872926,143.031948 174.072365,143.030023 180.889408,143.277682 C183.009909,159.267096 196.722911,171.647487 213.282069,171.647487 C220.205618,171.647487 226.628074,169.477582 231.918741,165.791567 C235.591924,173.310524 236.963032,181.770715 235.500174,190.198183 Z M41.7986406,119.295166 C52.7469714,119.295166 61.6530767,128.201913 61.6530767,139.149602 C61.6530767,143.081993 60.4994727,146.74876 58.5181995,149.8368 C55.2171469,154.983747 49.6088862,158.511928 43.1626907,158.952068 C42.7116431,158.982865 42.2573875,159.004038 41.7986406,159.004038 C39.3592622,159.004038 37.0218987,158.558765 34.8609764,157.750985 C30.4897283,156.114895 26.8473424,152.978735 24.5561744,148.973843 C22.8976281,146.074434 21.9442045,142.722053 21.9442045,139.149602 C21.9442045,128.201913 30.8509514,119.295166 41.7986406,119.295166 Z M107.847924,138.96097 C107.847924,129.014183 115.200706,120.754815 124.755473,119.326605 C125.717237,119.182244 126.701458,119.106534 127.70236,119.106534 C134.067072,119.106534 139.733718,122.122073 143.368405,126.794234 C144.271783,127.954895 145.055182,129.214364 145.685879,130.559166 C146.883753,133.11275 147.556796,135.958905 147.556796,138.96097 C147.556796,140.548299 147.364315,142.091356 147.010791,143.571537 C145.075713,151.671787 138.168846,157.862625 129.705448,158.714675 C129.047162,158.78076 128.378611,158.815407 127.70236,158.815407 C123.73853,158.815407 120.045458,157.643196 116.942019,155.633692 C111.475553,152.09268 107.847924,145.944188 107.847924,138.96097 Z M190.713007,115.351868 C186.459814,119.421562 183.296706,124.621121 181.721568,130.468058 C174.369428,130.192168 166.573297,130.192168 159.263503,130.468058 C157.584425,124.236158 154.101798,118.738254 149.417448,114.562053 L169.961608,73.0201183 L190.713007,115.351868 Z M102.215924,12.8325293 L237.652756,12.8325293 L205.664305,107.177833 C204.277798,107.510825 202.925297,107.929792 201.612575,108.433452 L170.012295,43.9702135 L138.322831,108.048489 C136.953007,107.57691 135.541478,107.197081 134.096585,106.909001 L102.215924,12.8325293 Z M233.136505,138.96097 C233.136505,140.951868 232.838801,142.873472 232.291513,144.687928 C230.987773,149.00464 228.251974,152.703487 224.639102,155.23269 C221.41825,157.487286 217.503182,158.815407 213.282069,158.815407 C204.114831,158.815407 196.381578,152.568108 194.108375,144.107918 C193.666951,142.465412 193.427633,140.74078 193.427633,138.96097 C193.427633,136.246985 193.976205,133.659396 194.966199,131.301502 C195.476275,130.086304 196.112746,128.937833 196.843533,127.858655 C200.416626,122.585311 206.44642,119.106534 213.282069,119.106534 C213.908916,119.106534 214.527423,119.139256 215.139513,119.196359 C225.219753,120.135667 233.136505,128.639487 233.136505,138.96097 Z M245.968585,138.96097 C245.968585,123.002995 234.471042,109.688429 219.327262,106.843557 L255.552866,0.000449122807 L84.3183799,0.000449122807 L120.599162,107.061061 C105.980856,110.313993 95.0158436,123.377051 95.0158436,138.96097 C95.0158436,150.662544 101.200265,160.941682 110.468235,166.717402 C106.01037,173.359286 100.723553,179.609151 94.6661694,185.324559 C85.0581494,194.388499 74.3549113,201.262003 62.8156632,205.78467 C51.1930065,198.483858 46.279603,184.715677 51.3822797,172.72089 L51.781999,171.78094 C52.0322246,171.193873 52.2824501,170.605522 52.5320341,170.017171 C65.2980291,165.564439 74.4851569,153.413742 74.4851569,139.149602 C74.4851569,121.125662 59.8219388,106.463086 41.7986406,106.463086 C23.7753424,106.463086 9.11212431,121.125662 9.11212431,139.149602 C9.11212431,148.246905 12.8513925,156.485101 18.8696381,162.41673 C17.7789113,164.741261 16.6304401,167.105572 15.4518135,169.526344 C9.94941754,180.828198 3.71302657,193.637823 1.35449023,207.862183 C-3.32986065,236.112008 4.22630977,258.694544 22.6307208,271.450274 C33.7991218,279.190584 45.1401143,282.233712 56.553608,282.233712 C78.0447759,282.233712 99.7842446,271.4368 121.047002,260.875356 C136.360164,253.269782 152.194951,245.404359 167.835974,241.547036 C173.655322,240.111767 179.644054,239.248168 185.984385,238.333883 C198.556616,236.520068 211.557438,234.645301 223.072946,227.975828 C236.421518,220.243858 245.559242,207.274474 248.142981,192.393752 C250.361007,179.618775 247.691934,166.823266 241.181578,155.972459 C244.216365,151.013502 245.968585,145.188379 245.968585,138.96097 Z"
              fill="#FFFFFF">
        </path>
    </svg>

    <svg id="MUI" viewBox="0 -26 256 256" fill="#000000">
        <g>
            <polygon fill="#00B0FF"
                     points="0 110.848 0 0 96 55.424 96 92.3733333 32 55.424 32 129.322667">

            </polygon>
            <polygon fill="#0081CB"
                     points="96 55.424 192 0 192 110.848 128 147.797333 96 129.322667 160 92.3733333 160 55.424 96 92.3733333">

            </polygon>
            <polygon fill="#00B0FF" points="96 129.322667 96 166.272 160 203.221333 160 166.272">

            </polygon>
            <path d="M160,203.221333 L256,147.797333 L256,73.8986667 L224,92.3733333 L224,129.322667 L160,166.272 L160,203.221333 Z M224,55.424 L224,18.4746667 L256,5.68434189e-14 L256,36.9493333 L224,55.424 Z"
                  fill="#0081CB">

            </path>
        </g>
    </svg>

    <svg id="REACT QUERY" viewBox="-20 0 296 296" version="1.1" fill="#000000">

        <g>
            <polygon fill="#673AB8"
                     points="128 0 256 73.8999491 256 221.699847 128 295.599796 0 221.699847 0 73.8999491">

            </polygon>
            <path d="M34.8647584,220.478469 C51.8814262,242.25881 105.959701,225.662965 157.014868,185.774297 C208.070035,145.885628 237.255632,97.428608 220.238964,75.6482664 C203.222296,53.8679249 149.144022,70.4637701 98.0888543,110.352439 C47.0336869,150.241107 17.8480906,198.698127 34.8647584,220.478469 Z M42.1343351,214.798853 C36.4908625,207.575537 38.9565723,193.395881 49.7081913,175.544904 C61.0297348,156.747677 80.2490923,135.997367 103.76847,117.622015 C127.287848,99.2466634 152.071368,85.6181573 173.049166,79.1803727 C192.970945,73.066665 207.325915,74.1045667 212.969387,81.3278822 C218.61286,88.5511977 216.14715,102.730854 205.395531,120.581832 C194.073987,139.379058 174.85463,160.129368 151.335252,178.50472 C127.815874,196.880072 103.032354,210.508578 82.054556,216.946362 C62.1327769,223.06007 47.7778077,222.022168 42.1343351,214.798853 Z"
                  fill="#FFFFFF">

            </path>
            <path d="M220.238964,220.478469 C237.255632,198.698127 208.070035,150.241107 157.014868,110.352439 C105.959701,70.4637701 51.8814262,53.8679249 34.8647584,75.6482664 C17.8480906,97.428608 47.0336869,145.885628 98.0888543,185.774297 C149.144022,225.662965 203.222296,242.25881 220.238964,220.478469 Z M212.969387,214.798853 C207.325915,222.022168 192.970945,223.06007 173.049166,216.946362 C152.071368,210.508578 127.287848,196.880072 103.76847,178.50472 C80.2490923,160.129368 61.0297348,139.379058 49.7081913,120.581832 C38.9565723,102.730854 36.4908625,88.5511977 42.1343351,81.3278822 C47.7778077,74.1045667 62.1327769,73.066665 82.054556,79.1803727 C103.032354,85.6181573 127.815874,99.2466634 151.335252,117.622015 C174.85463,135.997367 194.073987,156.747677 205.395531,175.544904 C216.14715,193.395881 218.61286,207.575537 212.969387,214.798853 Z"
                  fill="#FFFFFF">

            </path>
            <path d="M127.551861,167.666971 C138.378632,167.666971 147.155465,158.890139 147.155465,148.063368 C147.155465,137.236596 138.378632,128.459764 127.551861,128.459764 C116.72509,128.459764 107.948257,137.236596 107.948257,148.063368 C107.948257,158.890139 116.72509,167.666971 127.551861,167.666971 L127.551861,167.666971 Z"
                  fill="#FFFFFF">

            </path>
        </g>

    </svg>

    <svg id="STORYBOOK" viewBox="-31.5 0 319 319" xmlns="http://www.w3.org/2000/svg"
         xmlns:xlink="http://www.w3.org/1999/xlink" fill="#000000">
        <defs>
            <path d="M9.87245893,293.324145 L0.0114611411,30.5732167 C-0.314208957,21.8955842 6.33948896,14.5413918 15.0063196,13.9997149 L238.494389,0.0317105427 C247.316188,-0.519651867 254.914637,6.18486163 255.466,15.0066607 C255.486773,15.339032 255.497167,15.6719708 255.497167,16.0049907 L255.497167,302.318596 C255.497167,311.157608 248.331732,318.323043 239.492719,318.323043 C239.253266,318.323043 239.013844,318.317669 238.774632,318.306926 L25.1475605,308.712253 C16.8276309,308.338578 10.1847994,301.646603 9.87245893,293.324145 L9.87245893,293.324145 Z"
                  id="path-1">

            </path>
        </defs>
        <g>
            <mask id="mask-2" fill="white">
                <use xlink:href="#path-1">

                </use>
            </mask>
            <use fill="#FF4785" fill-rule="nonzero" xlink:href="#path-1">

            </use>
            <path d="M188.665358,39.126973 L190.191903,2.41148534 L220.883535,0 L222.205755,37.8634126 C222.251771,39.1811466 221.22084,40.2866846 219.903106,40.3327009 C219.338869,40.3524045 218.785907,40.1715096 218.342409,39.8221376 L206.506729,30.4984116 L192.493574,41.1282444 C191.443077,41.9251106 189.945493,41.7195021 189.148627,40.6690048 C188.813185,40.2267976 188.6423,39.6815326 188.665358,39.126973 Z M149.413703,119.980309 C149.413703,126.206975 191.355678,123.222696 196.986019,118.848893 C196.986019,76.4467826 174.234041,54.1651411 132.57133,54.1651411 C90.9086182,54.1651411 67.5656805,76.7934542 67.5656805,110.735941 C67.5656805,169.85244 147.345341,170.983856 147.345341,203.229219 C147.345341,212.280549 142.913138,217.654777 133.162291,217.654777 C120.456641,217.654777 115.433477,211.165914 116.024438,189.103298 C116.024438,184.317101 67.5656805,182.824962 66.0882793,189.103298 C62.3262146,242.56887 95.6363019,257.990394 133.753251,257.990394 C170.688279,257.990394 199.645341,238.303123 199.645341,202.663511 C199.645341,139.304202 118.683759,141.001326 118.683759,109.604526 C118.683759,96.8760922 128.139127,95.178968 133.753251,95.178968 C139.662855,95.178968 150.300143,96.2205679 149.413703,119.980309 Z"
                  fill="#FFFFFF" fill-rule="nonzero" mask="url(#mask-2)">

            </path>
        </g>
    </svg>

    <svg id="NEXT.JS" viewBox="0 -101.5 512 512" version="1.1"
         xmlns:xlink="http://www.w3.org/1999/xlink" fill="#000000">
        <path d="M120.81043,80.5613102 L217.378325,80.5613102 L217.378325,88.2366589 L129.662487,88.2366589 L129.662487,146.003758 L212.147564,146.003758 L212.147564,153.679106 L129.662487,153.679106 L129.662487,217.101725 L218.384241,217.101725 L218.384241,224.777073 L120.81043,224.777073 L120.81043,80.5613102 Z M226.0292,80.5613102 L236.289538,80.5613102 L281.756922,143.983929 L328.230222,80.5613102 L391.441486,0 L287.591232,150.649363 L341.105941,224.777073 L330.443237,224.777073 L281.756922,157.314798 L232.869425,224.777073 L222.407904,224.777073 L276.324978,150.649363 L226.0292,80.5613102 Z M344.928421,88.2366588 L344.928421,80.5613102 L454.975585,80.5613102 L454.975585,88.2366589 L404.27744,88.2366589 L404.27744,224.777073 L395.425382,224.777073 L395.425382,88.2366589 L344.928421,88.2366588 Z M1.42108547e-14,80.5613102 L11.0650714,80.5613102 L163.64593,308.884007 L100.591558,224.777073 L9.25442331,91.4683847 L8.85205708,224.777073 L1.42108547e-14,224.777073 L1.42108547e-14,80.5613102 Z M454.083705,214.785469 C452.275167,214.785469 450.918762,213.38418 450.918762,211.573285 C450.918762,209.762388 452.275167,208.361099 454.083705,208.361099 C455.913774,208.361099 457.248648,209.762388 457.248648,211.573285 C457.248648,213.38418 455.913774,214.785469 454.083705,214.785469 Z M462.781915,206.334618 L467.518563,206.334618 C467.583153,208.900055 469.456284,210.624719 472.212151,210.624719 C475.290972,210.624719 477.03492,208.770705 477.03492,205.29982 L477.03492,183.310363 L481.85769,183.310363 L481.85769,205.321379 C481.85769,211.573285 478.240613,215.173518 472.255212,215.173518 C466.635824,215.173518 462.781915,211.681076 462.781915,206.334618 Z M488.166045,206.054362 L492.945754,206.054362 C493.354828,209.007848 496.239878,210.883419 500.395211,210.883419 C504.270652,210.883419 507.11264,208.878498 507.11264,206.119036 C507.11264,203.747625 505.304102,202.324777 501.191828,201.354653 L497.187209,200.384531 C491.56782,199.069474 489.005723,196.353129 489.005723,191.782772 C489.005723,186.24229 493.527071,182.555823 500.30909,182.555823 C506.617445,182.555823 511.224912,186.24229 511.504805,191.480955 L506.811217,191.480955 C506.359083,188.613703 503.861576,186.824365 500.244499,186.824365 C496.43365,186.824365 493.893085,188.656819 493.893085,191.459398 C493.893085,193.679901 495.52938,194.95184 499.577063,195.900406 L503.000368,196.741178 C509.373314,198.228702 512,200.815695 512,205.493846 C512,211.443935 507.392533,215.173518 500.029197,215.173518 C493.139526,215.173518 488.51053,211.6164 488.166045,206.054362 Z"
              fill="#000000" fill-rule="nonzero">

        </path>
    </svg>

    <svg id="SASS" viewBox="0 0 32 32" fill="#000000">
        <path d="M16.171,18.7c-.481.221-1.008.509-2.063,1.088-.4.225-.818.45-1.207.662-.027-.027-.055-.061-.082-.089-2.087-2.23-5.947-3.805-5.783-6.8.061-1.091.436-3.955,7.413-7.433,5.742-2.83,10.311-2.046,11.1-.307C26.683,8.3,23.1,12.913,17.17,13.582a4.469,4.469,0,0,1-3.751-.948c-.314-.341-.361-.361-.477-.293-.191.1-.068.409,0,.586a3.5,3.5,0,0,0,2.141,1.684,11.4,11.4,0,0,0,6.956-.689c3.594-1.391,6.4-5.258,5.578-8.5-.825-3.287-6.281-4.371-11.443-2.537a26,26,0,0,0-8.79,5.047c-2.844,2.66-3.294,4.972-3.11,5.94.662,3.437,5.4,5.674,7.3,7.331-.1.055-.184.1-.259.143-.948.471-4.562,2.36-5.463,4.358-1.023,2.264.164,3.887.948,4.105a5.832,5.832,0,0,0,6.281-2.544,6.3,6.3,0,0,0,.559-5.8,5.03,5.03,0,0,1,.716-.477c.484-.286.945-.568,1.354-.786l0,0a10.475,10.475,0,0,1,4.475-.989c3.246.382,3.887,2.407,3.764,3.26a2.157,2.157,0,0,1-1.03,1.459c-.225.143-.3.191-.28.293.027.15.136.143.327.116a2.535,2.535,0,0,0,1.766-2.257c.1-2-1.807-4.194-5.183-4.174a7.753,7.753,0,0,0-2.946.587q-.225.093-.437.2Zm-4.825,7.839c-1.078,1.173-2.578,1.616-3.226,1.241-.7-.4-.423-2.135.9-3.376a17.18,17.18,0,0,1,2.53-1.889c.157-.1.389-.232.668-.4.048-.027.075-.041.075-.041l.164-.1A4.658,4.658,0,0,1,11.346,26.539Z"
              style="fill:#cd6799">

        </path>
    </svg>

    <svg id="STYLED COMPONENTS" viewBox="0 0 120 119" fill="none" xmlns="http://www.w3.org/2000/svg">

        <path d="M68.7673 118.279C68.9473 117.872 69.4015 117.589 69.7315 117.246C74.7666 111.967 79.8446 106.735 84.8111 101.391C86.3653 99.9558 87.5662 98.1804 88.32 96.2036C89.0739 94.2269 89.3601 92.1026 89.1563 89.9968C89.0004 89.0951 88.7958 88.2025 88.5435 87.3229C87.1894 88.6084 85.9296 89.7783 84.6611 90.9567C82.6899 92.7908 80.7273 94.6334 78.739 96.4461C77.5665 97.6415 76.059 98.4531 74.4156 98.7737C72.7721 99.0943 71.0701 98.9087 69.5344 98.2416C67.9797 97.6705 66.627 96.6553 65.6443 95.3221C64.6616 93.9889 64.092 92.3965 64.0064 90.7425C63.9604 90.5297 63.8988 90.3206 63.8222 90.1168C62.3095 91.4024 60.8611 92.5851 59.4256 93.8021L29.5877 119.085C29.382 119.261 29.1591 119.479 28.9663 119.65H68.7459L68.6859 119.612C68.4716 119.462 68.583 118.673 68.7673 118.279Z"
              fill="#FFCEBF"/>
        <path d="M27.1434 118.279C27.4972 117.818 27.9243 117.418 28.4075 117.096L69.6997 82.0642C72.5165 79.6731 75.3205 77.2691 78.1116 74.8522C78.4565 74.6118 78.7267 74.2791 78.8915 73.8924C79.5591 70.9831 79.6537 67.9717 79.17 65.0263C78.7415 65.3262 78.5101 65.4548 78.313 65.6648C74.932 68.6901 71.5681 71.7412 68.1699 74.7494C67.0442 75.8824 65.5882 76.6292 64.0113 76.8825C62.4344 77.1359 60.8177 76.8826 59.3938 76.1592C57.9411 75.4734 56.7253 74.3709 55.9012 72.992C55.077 71.6131 54.6818 70.0201 54.7658 68.4159V67.0275C54.1444 67.4817 53.6902 67.7859 53.266 68.1287C36.7394 81.3615 20.2156 94.5842 3.69472 107.797C2.94909 108.393 2.05777 109.721 1.08074 108.431C0.103713 107.141 1.59068 106.61 2.34059 106.01C19.9528 91.8774 37.5736 77.7576 55.2029 63.6507C58.074 61.3496 58.2625 60.3854 56.3942 56.7301L55.28 57.7757C52.2247 60.6168 49.135 63.4193 46.1268 66.3075C44.8929 67.4978 43.3474 68.3148 41.6689 68.6641C39.9904 69.0135 38.2473 68.8809 36.6409 68.2818C35.0345 67.6827 33.6304 66.6415 32.5905 65.2784C31.5507 63.9153 30.9176 62.2858 30.7644 60.5782C30.1944 61.0067 29.7016 61.3196 29.2345 61.6838L3.09479 81.9443C2.64395 82.3864 2.1298 82.7591 1.56925 83.0498C1.14619 83.1777 0.69189 83.155 0.283691 82.9856V119.671H27.0919C26.9923 119.451 26.945 119.21 26.954 118.969C26.9629 118.727 27.0277 118.491 27.1434 118.279Z"
              fill="#FFCEBF"/>
        <path d="M99.5652 1.82096C98.8367 4.20782 98.1297 6.59897 97.4912 9.01154C96.9014 10.7164 96.97 12.5802 97.6836 14.2371C98.3971 15.8941 99.704 17.2246 101.348 17.9676C106.376 20.6107 112.042 21.798 117.709 21.3958V2.22806C117.646 1.80781 117.669 1.37914 117.777 0.968207C117.897 0.73576 118.049 0.520916 118.227 0.329712H99.5481C99.8352 0.663958 99.7366 1.25103 99.5652 1.82096Z"
              fill="#FF6196"/>
        <path d="M62.0512 42.9976C61.9624 45.137 61.214 47.1966 59.9086 48.894C55.2421 54.9179 49.883 60.3719 43.9419 65.1435C42.9839 66.0304 41.7695 66.591 40.4731 66.745C39.1767 66.8989 37.8648 66.6383 36.7256 66.0005C35.5918 65.5161 34.6358 64.6925 33.989 63.6428C33.3421 62.5932 33.0362 61.369 33.1132 60.1384C33.2505 58.627 33.878 57.202 34.9002 56.0803C41.5437 49.7455 48.7416 44.019 56.4076 38.9695C56.9097 38.5758 57.5228 38.3499 58.1603 38.3237C58.7978 38.2976 59.4274 38.4725 59.96 38.8238C60.6601 39.2585 61.2261 39.8786 61.5952 40.6153C61.9643 41.352 62.1222 42.1766 62.0512 42.9976Z"
              fill="#FF87AF"/>
        <path d="M56.9126 68.97C56.8131 68.0228 56.9347 67.0654 57.2678 66.1731C57.6009 65.2809 58.1365 64.478 58.8324 63.8277C65.3372 57.8281 72.3163 52.3638 79.7013 47.4883C79.9241 47.3468 80.1298 47.2054 80.3741 47.0597C81.0192 46.594 81.8008 46.356 82.5959 46.3832C83.3911 46.4103 84.1546 46.7011 84.7664 47.2097C85.3584 47.7112 85.7772 48.3865 85.9634 49.1396C86.1496 49.8928 86.0936 50.6854 85.8034 51.4049C84.8691 54.5168 83.1448 57.3337 80.7983 59.5811C76.0329 64.2758 71.1753 68.8762 66.2286 73.3795C65.4836 74.1456 64.5051 74.6422 63.4469 74.7911C62.3888 74.9401 61.3111 74.7329 60.3836 74.2022C59.409 73.6958 58.5791 72.9499 57.9719 72.0347C57.3648 71.1194 57.0002 70.0648 56.9126 68.97Z"
              fill="#FF87AF"/>
        <path d="M87.8344 71.8015C86.6346 73.0871 85.4004 74.3126 84.2477 75.6282C83.9011 76.1367 83.6136 76.683 83.3907 77.2566C84.0249 77.4451 84.7662 77.9422 85.2804 77.7665C87.8987 76.888 90.4527 75.8339 93.3281 74.724C92.7024 76.1638 92.231 77.4922 91.5668 78.7092C88.8305 83.3078 85.4038 87.4587 81.4066 91.0164C79.8868 92.4819 78.3084 93.8832 76.6715 95.2201C75.8046 95.9395 74.7622 96.4157 73.6509 96.6001C72.5396 96.7844 71.3992 96.6702 70.3465 96.2692C69.2938 95.8681 68.3665 95.1947 67.6595 94.3176C66.9525 93.4406 66.4912 92.3916 66.3227 91.2778C66.254 90.6585 66.3087 90.0317 66.4838 89.4337C66.6589 88.8357 66.9507 88.2784 67.3426 87.7939C73.174 81.4614 79.8384 75.9503 87.1531 71.4115C87.242 71.3771 87.3363 71.3582 87.4316 71.3558L87.8344 71.8015Z"
              fill="#FF87AF"/>
        <path d="M97.6724 54.7335L105.004 22.1659L110.147 23.37L107.494 31.4305C105.017 38.9296 102.51 46.4287 100.093 53.9364C99.6221 55.3248 99.0051 55.5819 97.6724 54.7335Z"
              fill="#FF6196"/>
        <path d="M89.3857 73.8885C90.1614 70.9274 90.9327 68.1892 91.5841 65.421C92.2189 62.7364 93.4263 60.2207 95.1236 58.0461C96.1649 56.6791 97.3348 57.2234 98.5304 57.519C99.636 57.789 99.9145 58.5989 99.9616 59.6616C100.136 62.6005 99.241 65.5031 97.4419 67.8335C95.3002 70.4887 92.5317 72.5695 89.3857 73.8885Z"
              fill="#FF6196"/>
        <path d="M119.944 3.83936C120.008 2.88498 119.983 1.92674 119.871 0.976845C119.783 0.711516 119.607 0.483621 119.374 0.329779C119.184 0.175101 118.961 0.0652523 118.723 0.00838844C118.585 -0.0173228 118.393 0.124089 118.208 0.325493C118.03 0.516698 117.878 0.731542 117.758 0.96399C117.65 1.37492 117.627 1.80359 117.69 2.22384V21.3873C112.023 21.7895 106.357 20.6022 101.329 17.9591C99.685 17.2161 98.3781 15.8856 97.6646 14.2286C96.951 12.5717 96.8824 10.7079 97.4722 9.00304C98.1107 6.59046 98.8178 4.19932 99.5462 1.81246C99.7177 1.24253 99.8162 0.655454 99.5462 0.321208C99.3961 0.158494 99.1888 0.0602123 98.9677 0.0469556C98.6847 0.0500088 98.4105 0.146413 98.1878 0.321208C97.8674 0.512888 97.6121 0.796593 97.4551 1.1354C96.598 3.70652 95.8438 6.30336 95.1882 8.9259C94.9407 9.95936 94.874 11.0279 94.9911 12.0841C95.1569 13.9952 95.8676 15.8186 97.0389 17.3377C98.2102 18.8569 99.7928 20.0081 101.599 20.6545C102.409 20.993 102.884 21.3273 102.657 22.3943C102.344 23.7484 102.04 25.1026 101.732 26.461C99.632 35.6656 97.5436 44.8745 95.4667 54.0877C95.4082 54.4985 95.2275 54.8822 94.9482 55.189C93.5793 56.2771 92.4291 57.6148 91.5586 59.1314C90.4493 61.1327 89.6817 63.3052 89.2875 65.5592C89.2118 66.2782 88.952 66.9655 88.5331 67.5548C88.1143 68.144 87.5505 68.6153 86.8963 68.9231C85.1094 69.8273 83.4682 70.9971 81.4841 72.2141C81.6164 69.8282 81.5906 67.4361 81.407 65.0535C81.256 64.3206 81.288 63.5618 81.5003 62.8442C81.7126 62.1267 82.0985 61.4725 82.624 60.9397C85.2375 58.3506 87.1005 55.1015 88.0148 51.538C88.2878 50.712 88.3627 49.8333 88.2333 48.9729C88.104 48.1126 87.774 47.2948 87.27 46.5856C86.7661 45.8764 86.1023 45.2957 85.3325 44.8905C84.5626 44.4853 83.7081 44.267 82.8382 44.2531C81.4298 44.2374 80.047 44.6304 78.8573 45.3844C74.7683 48.1767 70.7504 51.0715 66.8073 54.0663C64.4633 55.8318 62.2564 57.7858 59.9852 59.637C59.8873 59.5319 59.8025 59.4154 59.7324 59.2899C59.689 58.9744 59.604 58.6661 59.4796 58.3729C57.5812 55.4418 58.8968 53.3121 60.958 51.1223C63.1053 48.8714 64.2919 45.8727 64.2661 42.7619C64.3327 41.1769 63.8363 39.6194 62.8649 38.3653C62.3474 37.7286 61.7096 37.2001 60.988 36.8097C59.9629 36.2487 58.7908 36.0145 57.6289 36.1386C56.467 36.2627 55.3708 36.7391 54.4873 37.5039L53.2917 38.361C50.5621 40.315 47.7981 42.2177 45.1713 44.3089C41.3364 47.3705 37.5841 50.5341 33.9183 53.7963C32.2042 55.309 30.953 57.3744 29.1746 58.78C19.9014 66.1034 10.5297 73.294 1.1922 80.5317C0.871132 80.7232 0.575909 80.9551 0.313735 81.2216C0.286745 81.2606 0.263774 81.3023 0.245172 81.3459C0.0480521 81.8044 -0.119071 82.5629 0.112331 82.8414C0.169054 82.9019 0.23761 82.95 0.313735 82.9828C0.721934 83.1523 1.17623 83.175 1.5993 83.0471C2.15985 82.7563 2.67399 82.3837 3.12483 81.9415L29.2646 61.6811C29.7317 61.3168 30.2245 60.9869 30.7944 60.5755C30.9476 62.2831 31.5807 63.9125 32.6206 65.2757C33.6604 66.6388 35.0646 67.68 36.671 68.2791C38.2774 68.8782 40.0204 69.0107 41.6989 68.6614C43.3774 68.312 44.9229 67.4951 46.1569 66.3048C49.1565 63.4166 52.2547 60.6141 55.3101 57.773L56.4242 56.7274C58.2926 60.3827 58.104 61.3468 55.2329 63.648C37.5893 77.7663 19.9585 91.8875 2.34064 106.012C1.59073 106.611 0.108046 107.156 1.08079 108.433C2.05353 109.71 2.94914 108.394 3.69476 107.798C20.2242 94.5972 36.7423 81.3787 53.2489 68.1432C53.6774 67.8003 54.1273 67.4961 54.7487 67.0419V68.4303C54.6647 70.0345 55.0599 71.6275 55.8841 73.0064C56.7082 74.3853 57.924 75.4879 59.3767 76.1736C60.8007 76.897 62.4173 77.1503 63.9942 76.897C65.5711 76.6436 67.0271 75.8968 68.1528 74.7638C71.551 71.7642 74.9149 68.7045 78.2959 65.6792C78.5102 65.4863 78.7587 65.3406 79.153 65.0407C79.6367 67.9861 79.542 70.9975 78.8744 73.9068C78.7096 74.2936 78.4394 74.6262 78.0945 74.8667C75.3005 77.2807 72.4966 79.6847 69.6826 82.0787L28.4075 117.115C27.9243 117.437 27.4972 117.836 27.1434 118.297C27.0305 118.507 26.9672 118.741 26.9582 118.979C26.9493 119.217 26.9951 119.455 27.092 119.673C27.2856 119.818 27.5094 119.917 27.7468 119.964C27.9842 120.011 28.2291 120.004 28.4633 119.943C28.648 119.889 28.8181 119.794 28.9603 119.664C29.1746 119.493 29.3889 119.274 29.5817 119.099L59.4196 93.8158C60.8551 92.5988 62.3035 91.399 63.8162 90.1306C63.8928 90.3343 63.9544 90.5434 64.0005 90.7562C64.0861 92.4102 64.6556 94.0027 65.6383 95.3358C66.6211 96.669 67.9737 97.6842 69.5284 98.2553C71.0641 98.9225 72.7662 99.108 74.4096 98.7874C76.053 98.4669 77.5606 97.6552 78.733 96.4598C80.7213 94.6472 82.684 92.8045 84.6552 90.9705C85.9407 89.792 87.1834 88.6093 88.5376 87.3366C88.7898 88.2162 88.9944 89.1089 89.1503 90.0106C89.3473 92.1094 89.0578 94.2253 88.3042 96.1941C87.5506 98.1628 86.3532 99.9313 84.8051 101.362C79.8386 106.71 74.7606 111.942 69.7255 117.217C69.3955 117.56 68.9413 117.843 68.7613 118.25C68.5813 118.657 68.4657 119.454 68.6799 119.626L68.7399 119.664C69.1892 119.883 69.6945 119.959 70.1883 119.883C70.3267 119.854 70.45 119.777 70.5354 119.664C70.6554 119.54 70.7711 119.386 70.8868 119.27C74.9663 115.053 79.0672 110.858 83.1168 106.611C84.7513 104.955 86.288 103.205 87.7191 101.371C89.5851 99.3049 90.8224 96.7492 91.2855 94.0042C91.7486 91.2591 91.4181 88.439 90.3331 85.8754C90.2164 85.3037 90.3304 84.7092 90.6502 84.2213C90.9287 83.7413 91.2372 83.2742 91.5543 82.8114C92.569 81.494 93.4141 80.0544 94.0698 78.5262C95.3368 74.7758 97.2817 71.2898 99.8076 68.2417C100.969 66.7695 101.768 65.0448 102.14 63.207C102.512 61.3692 102.447 59.4696 101.95 57.6616C101.775 56.9741 101.775 56.2535 101.95 55.5661C104.119 48.8512 106.351 42.1577 108.562 35.4599L111.519 26.4867L112.432 23.7142C114.377 23.7142 116.211 23.6756 118.037 23.7142C119.554 23.757 120.017 23.0457 120 21.5715C119.91 15.658 119.944 9.74866 119.944 3.83936ZM43.9371 65.1435C42.9791 66.0304 41.7647 66.591 40.4683 66.745C39.1719 66.8989 37.86 66.6383 36.7208 66.0006C35.587 65.5162 34.631 64.6925 33.9842 63.6429C33.3373 62.5932 33.0314 61.369 33.1084 60.1384C33.2457 58.6271 33.8732 57.202 34.8953 56.0803C41.5388 49.7455 48.7368 44.019 56.4028 38.9695C56.8212 38.6737 57.2972 38.4693 57.7998 38.3696C58.1369 38.3074 58.4825 38.3074 58.8196 38.3696C59.2234 38.4482 59.6086 38.6023 59.9552 38.8238C60.656 39.2588 61.2224 39.8796 61.5916 40.6171C61.9607 41.3547 62.1182 42.1802 62.0464 43.0019C61.9576 45.1413 61.2092 47.2009 59.9038 48.8983C55.237 54.9207 49.878 60.3733 43.9371 65.1435ZM66.2202 73.4097C65.4752 74.1758 64.4966 74.6724 63.4385 74.8213C62.3803 74.9703 61.3027 74.7631 60.3752 74.2324C59.3988 73.7249 58.5678 72.977 57.9605 72.0593C57.3533 71.1416 56.9897 70.0844 56.9042 68.9874C56.8047 68.0401 56.9263 67.0828 57.2594 66.1905C57.5925 65.2982 58.1281 64.4954 58.8239 63.8451C65.3288 57.8454 72.3078 52.3811 79.6929 47.5056C79.9157 47.3642 80.1214 47.2228 80.3657 47.0771C81.0107 46.6114 81.7923 46.3734 82.5875 46.4005C83.3826 46.4277 84.1462 46.7185 84.758 47.2271C85.35 47.7285 85.7688 48.4038 85.955 49.157C86.1412 49.9101 86.0852 50.7028 85.795 51.4223C84.8607 54.5342 83.1364 57.351 80.7899 59.5985C76.0633 64.3208 71.1482 68.8674 66.2288 73.3925L66.2202 73.4097ZM91.5501 78.7276C88.8175 83.319 85.3967 87.4638 81.407 91.0176C79.8872 92.4831 78.3088 93.8844 76.6718 95.2214C75.8049 95.9408 74.7625 96.417 73.6512 96.6013C72.5399 96.7856 71.3996 96.6714 70.3469 96.2704C69.2942 95.8694 68.3669 95.1959 67.6599 94.3189C66.9529 93.4419 66.4915 92.3928 66.323 91.279C66.2543 90.6597 66.3091 90.0329 66.4842 89.435C66.6592 88.837 66.9511 88.2796 67.3429 87.7951C73.1743 81.4627 79.8387 75.9515 87.1534 71.4128C87.2424 71.3783 87.3366 71.3594 87.432 71.3571L87.8605 71.7856C86.6606 73.0712 85.4265 74.2967 84.2738 75.6123C83.9272 76.1208 83.6396 76.6671 83.4167 77.2407C84.0509 77.4292 84.7923 77.9263 85.3065 77.7506C87.3763 77.0564 89.4117 76.2508 91.5929 75.3937L93.3541 74.7081C92.6942 76.1651 92.2228 77.4935 91.5586 78.7105L91.5501 78.7276ZM97.4336 67.8646C95.8352 69.8996 93.8317 71.5806 91.5501 72.8012C90.8444 73.1954 90.1202 73.564 89.3775 73.9068C90.1402 70.9885 90.903 68.2846 91.5501 65.5506L91.5758 65.4392C92.2106 62.7546 93.418 60.2389 95.1153 58.0644C96.1566 56.6974 97.3265 57.2416 98.5221 57.5373C99.6277 57.8073 99.9062 58.6172 99.9533 59.6799C100.129 62.6162 99.2372 65.5171 97.4422 67.8475L97.4336 67.8646ZM107.461 31.4404C104.984 38.9395 102.477 46.4386 100.06 53.9463C99.6062 55.3561 98.9892 55.6132 97.6565 54.7648L104.011 26.5124L104.988 22.1758L110.131 23.3799L109.098 26.5124L107.461 31.4404Z"
              fill="#1F2626"/>

    </svg>

</svg>